<?xml version="1.0" encoding="utf-8"?>
<!-- Generator: Adobe Illustrator 16.0.3, SVG Export Plug-In . SVG Version: 6.00 Build 0)  -->
<!DOCTYPE svg PUBLIC "-//W3C//DTD SVG 1.1//EN" "http://www.w3.org/Graphics/SVG/1.1/DTD/svg11.dtd">
<svg version="1.1" id="Слой_1" xmlns="http://www.w3.org/2000/svg" xmlns:xlink="http://www.w3.org/1999/xlink" x="0px" y="0px"
	 width="768.53px" height="769.282px" viewBox="0 0 768.53 769.282" enable-background="new 0 0 768.53 769.282"
	 xml:space="preserve">
<g>
	<path fill="#FFFFFF" d="M384.744,0.171C172.252,0.171,0,172.408,0,384.904c0,212.482,172.252,384.719,384.744,384.719
		c212.472,0,384.724-172.236,384.724-384.719C769.468,172.407,597.216,0.171,384.744,0.171 M226.401,84.121
		c26.002-29.271,70.087-52.138,129.24-57.845c9.599-0.801,19.248-1.468,29.077-1.468c96.838,0,184.134,40.307,246.444,104.937
		c-8.71-2.895-20.89-6.857-44.254-6.857c-189.739,0-254.128,374.74-310.993,373.452c-37.663,1.288-166.514-280.551-49.52-412.219
		 M384.719,710.11c-189.267,0-342.651-153.415-342.651-342.651c0-110.578,52.65-208.72,133.993-271.384
		C39.039,250.86,192.197,584.211,280.561,593.198c110.069,6.79,151.727-341.024,281.014-385.586
		C658.587,171.217,732,316.466,687.694,480.188C642.712,619.421,527.838,707.656,384.719,710.11 M392.776,118.781
		c54.109,0,98.378-13.617,98.764-30.257c0.446-16.691-43.248-30.247-97.434-30.247c-54.186-0.103-98.326,13.422-98.84,30.139
		C294.897,105.052,338.617,118.781,392.776,118.781"/>
</g>
</svg>
