<?xml version="1.0" encoding="utf-8"?>
<!-- Generator: Adobe Illustrator 16.0.3, SVG Export Plug-In . SVG Version: 6.00 Build 0)  -->
<!DOCTYPE svg PUBLIC "-//W3C//DTD SVG 1.1//EN" "http://www.w3.org/Graphics/SVG/1.1/DTD/svg11.dtd">
<svg version="1.1" id="Layer_1" xmlns="http://www.w3.org/2000/svg" xmlns:xlink="http://www.w3.org/1999/xlink" x="0px" y="0px"
	 width="415px" height="345px" viewBox="0 0 415 345" enable-background="new 0 0 415 345" xml:space="preserve">
<g>
	<path fill="#FFFFFF" d="M230.631,2.479c17.975-1.022,30.891,18.38,36.308,31.407c3.087,7.408,5.669,19.487-1.774,23.15
		c-5.815,2.868-12.775,3.314-21.009,4.392c-19.656,2.555-32.153-2.137-39.264-14.03c-2.04-3.407-4.175-9.413-2.907-15.377
		c2.478-11.767,9.751-21.142,18.848-26.443C222.527,4.583,226.779,2.699,230.631,2.479"/>
	<path fill="#FFFFFF" d="M175.555,73.338c10.529,0.017,21.535,1.723,31.792,4.448c11.222,2.992,21.771,6.947,30.614,10.472
		c16.941,6.76,29.359,11.694,29.359,11.694s8.555-5.91,11.816-8.108c7.896-4.861,15.244-9.758,24.978-11.878
		c3.148-0.683,9.012-0.711,11.946-0.19c11.523,2.051,18.519,7.068,19.494,16.845c1.321,13.14-15.456,27.048-19.402,30.754
		c-3.53,3.308-20.448,19.289-41.254,20.958c-10.125,0.819-19.697-2.515-26.584-5.408c-2.299-0.969-8.286-3.952-8.286-3.952
		s-9.247,8.803-17.734,17.693c-8.527,8.927-29.652,34.773-29.652,34.825c23.314-1.677,50.092,5.764,67.071,12.319
		c39.934,15.424,78.465,42.565,104.5,79.271c8.938,12.619,17.464,26.542,23.917,41.482c1.77,4.104,5.259,12.798,2.151,16.508
		c-3.222,3.837-10.644-0.718-14.825-2.754c-7.604-3.69-23.806-16.072-35.515-25.463c-5.354-4.301-13.622-11.729-15.063-18.291
		c-0.915-4.201,1.632-9.69,2.512-13.996c1.412-6.883-2.603-12.201-5.381-15.662c-6.52-8.131-17.699-13.209-28.217-17.331
		c-20.877-8.207-35.512-10.828-70.903-15.308c-35.388-4.479-59.074-1.658-61.696-1.556c-2.728,3.239-6.233,7.408-8.962,10.647
		c-7.529,7.804-35.542,35.465-43.644,41.604c-14.489,10.979-30.679,21.625-47.821,29.893C27.768,328.763,6.72,326.25,4.326,323.614
		c-2.388-2.632-2.48-10.125,2.545-20.42c5.071-10.38,17.129-23.843,22.689-29.554c5.55-5.726,15.866-15.192,29.888-25.828
		c19.372-14.707,48.836-29.511,63.488-36.703c20.44-10.047,40.898-14.871,46.034-16.262c28.102-38.623,57.865-63.133,57.865-63.133
		s-11.938-7.634-16.979-11c-10.969-7.324-21.777-15.167-34.433-20.687c-7.968-3.47-21.131-8.375-32.523-5.491
		c-14.021,3.542-32.48,14.068-39.889,23.156c-2.467,3.019-4.556,8.54-5.381,13.239c-0.658,3.709,0.361,9.116-0.64,11.778
		c-1.758,4.668-9.371,8.8-15.3,11.4c-8.058,3.526-16.333,7.167-25.513,9.493c-3.096,0.779-8.552,2.251-10.238-0.038
		c-2.239-3.04,1.247-7.598,2.432-9.693c4.817-8.549,10.602-15.721,16.696-22.994c18.576-22.159,38.798-38.674,67.194-49.979
		C139.39,78.063,153.073,73.306,175.555,73.338 M314.304,92.567c-4.839,0.455-10.148,1.359-14.518,3.064
		c-6.452,2.508-12.191,5.549-18.107,9.122c13.05,3.964,28.06,6.216,39.853-0.924c2.869-1.742,5.455-4.091,5.579-6.881
		C327.257,93.803,319.135,92.116,314.304,92.567 M137.722,233.584c0,0-6.536,1.195-10.048,1.91
		c-3.505,0.72-11.601,3.035-17.026,4.445C95.8,243.791,56.869,258.9,39.361,276.387c-5.713,5.704-10.198,12.508-13.525,20.613
		c-0.913,2.224-2.765,7.381-0.903,10.48c1.585,2.636,6.29,3.217,10.323,2.333c8.286-1.815,15.756-5.228,22.403-8.89
		c24.983-13.781,48.978-33.793,63.883-49.884c4.827-5.214,11.007-11.644,12.754-13.588
		C136.046,235.494,137.722,233.584,137.722,233.584"/>
</g>
</svg>
